<svg width="16" height="22" viewBox="0 0 16 22" fill="none" xmlns="http://www.w3.org/2000/svg">
<path d="M2.7231 14.7434C2.74567 14.7656 2.7571 14.7875 2.7571 14.8096C2.77997 14.8096 2.80254 14.8204 2.82512 14.8426C3.43781 15.5021 4.13023 16.1178 4.90181 16.6896C5.67339 17.2392 6.55871 17.536 7.55719 17.58C7.58006 17.58 7.60263 17.5914 7.6252 17.6132H7.72751C7.75009 17.6132 7.77295 17.624 7.79553 17.6462H8.16988C8.28363 17.624 8.38564 17.6022 8.47652 17.58C8.84032 17.5138 9.18727 17.3794 9.49786 17.1844C9.83792 16.9864 10.0991 16.7444 10.2806 16.4587L10.3489 16.3266L10.4169 16.1948C10.4623 16.0409 10.4963 15.898 10.5192 15.7659C10.5418 15.6341 10.5532 15.5132 10.5532 15.4032C10.5532 14.8096 10.2806 14.3149 9.7362 13.9189C9.2286 13.5092 8.65301 13.1857 8.03386 12.9623C7.80101 12.8791 7.56199 12.813 7.31886 12.7646C7.10542 12.7021 6.88972 12.647 6.67216 12.5996H6.60415C6.58129 12.5778 6.55871 12.5667 6.53614 12.5667C5.43226 12.3061 4.37602 11.8834 3.40409 11.3133C2.42789 10.7197 1.75863 9.87299 1.39541 8.77353C1.32428 8.54346 1.25617 8.31253 1.19108 8.08079C1.14449 7.82975 1.11044 7.57667 1.08906 7.32245C1.06815 7.24699 1.05673 7.16936 1.05506 7.09125V6.29967C1.07763 6.12386 1.11164 5.94805 1.15708 5.77195C1.22755 5.32282 1.3415 4.8811 1.49743 4.45266C1.65631 4.01299 1.86064 3.61706 2.11012 3.26543C2.83655 2.0998 3.76702 1.26419 4.90181 0.758631C6.05947 0.252782 7.26228 0 8.51053 0C8.80573 0 9.10064 0.0218699 9.39585 0.0658938C9.71463 0.0879618 10.0325 0.120929 10.3489 0.164734C11.1768 0.299652 11.9871 0.520866 12.7659 0.824524C13.583 1.13241 14.332 1.49511 15.013 1.91291L13.1406 5.96992C12.5295 5.53126 11.8802 5.14504 11.1999 4.81564C10.5192 4.48561 9.78164 4.32087 8.98719 4.32087H8.71456C8.19275 4.38676 7.70494 4.61768 7.25085 5.01332C6.79705 5.3871 6.57015 5.79411 6.57015 6.23378V6.43174C6.59272 6.49764 6.62672 6.56353 6.67216 6.62971C6.7176 6.78365 6.79705 6.92652 6.9105 7.05859C7.02395 7.19037 7.14883 7.31137 7.28485 7.42129C7.53462 7.61925 7.89754 7.80614 8.3745 7.98195C8.85088 8.13589 9.35041 8.28983 9.87251 8.44378C10.3034 8.55369 10.7232 8.66361 11.1319 8.77353C11.5406 8.86158 11.8809 8.94962 12.1532 9.03767C13.4241 9.47734 14.3774 10.2138 15.013 11.2474C15.6482 12.2588 15.9774 13.3364 16 14.4796V14.6446C16 14.7767 15.9889 14.9088 15.966 15.0405V15.4032C15.83 16.5467 15.4442 17.6351 14.8086 18.6687C14.1959 19.7022 13.3675 20.4938 12.3236 21.0437C11.9361 21.2202 11.5382 21.3743 11.1319 21.5052C10.7262 21.6146 10.3176 21.7136 9.90652 21.8023C9.56941 21.8678 9.22823 21.9118 8.88518 21.9341C8.55793 21.9772 8.22809 21.9992 7.89784 22H7.52319C6.16149 21.9563 4.82266 21.6702 3.50611 21.1422C2.18985 20.5927 1.02105 19.867 0 18.9655L2.7231 14.7434Z" fill="white"/>
</svg>
